<svg width="300" height="300" viewBox="0 0 300 300" fill="none" xmlns="http://www.w3.org/2000/svg">
<g clip-path="url(#clip0_1_2)">
<rect width="300" height="300" rx="20" fill="white"/>
<path d="M23.1364 221V81.3636H43.8636V103.182H45.6818C48.5909 95.7273 53.2879 89.9394 59.7727 85.8182C66.2576 81.6364 74.0455 79.5455 83.1364 79.5455C92.3485 79.5455 100.015 81.6364 106.136 85.8182C112.318 89.9394 117.136 95.7273 120.591 103.182H122.045C125.621 95.9697 130.985 90.2424 138.136 86C145.288 81.697 153.864 79.5455 163.864 79.5455C176.348 79.5455 186.561 83.4545 194.5 91.2727C202.439 99.0303 206.409 111.121 206.409 127.545V221H184.955V127.545C184.955 117.242 182.136 109.879 176.5 105.455C170.864 101.03 164.227 98.8182 156.591 98.8182C146.773 98.8182 139.167 101.788 133.773 107.727C128.379 113.606 125.682 121.061 125.682 130.091V221H103.864V125.364C103.864 117.424 101.288 111.03 96.1364 106.182C90.9849 101.273 84.3485 98.8182 76.2273 98.8182C70.6515 98.8182 65.4394 100.303 60.5909 103.273C55.803 106.242 51.9242 110.364 48.9545 115.636C46.0455 120.848 44.5909 126.879 44.5909 133.727V221H23.1364ZM261.273 222.455C256.788 222.455 252.939 220.848 249.727 217.636C246.515 214.424 244.909 210.576 244.909 206.091C244.909 201.606 246.515 197.758 249.727 194.545C252.939 191.333 256.788 189.727 261.273 189.727C265.758 189.727 269.606 191.333 272.818 194.545C276.03 197.758 277.636 201.606 277.636 206.091C277.636 209.061 276.879 211.788 275.364 214.273C273.909 216.758 271.939 218.758 269.455 220.273C267.03 221.727 264.303 222.455 261.273 222.455Z" fill="black"/>
</g>
<defs>
<clipPath id="clip0_1_2">
<rect width="300" height="300" rx="20" fill="white"/>
</clipPath>
</defs>
</svg>
